<svg width="46" height="39" viewBox="0 0 46 39" fill="none" xmlns="http://www.w3.org/2000/svg">
<path d="M9.58331 11.375H36.0141C36.5497 11.375 37.0793 11.4702 37.5688 11.6543C38.0584 11.8385 38.4969 12.1076 38.8563 12.4443C39.2156 12.7809 39.4878 13.1777 39.6552 13.609C39.8226 14.0403 39.8816 14.4966 39.8283 14.9484L38.6783 24.6984C38.5837 25.5003 38.1411 26.2439 37.4362 26.7847C36.7314 27.3255 35.8148 27.625 34.8641 27.625H16.56C15.6735 27.6253 14.8142 27.3651 14.1286 26.8886C13.4429 26.4122 12.9732 25.749 12.7995 25.012L9.58331 11.375Z" stroke="black" stroke-width="2" stroke-linejoin="round"/>
<path d="M30.6667 34.125H34.5M9.58334 11.375L8.03084 6.10512C7.92701 5.75372 7.68767 5.44181 7.35082 5.21894C7.01398 4.99607 6.59896 4.87501 6.17168 4.875H3.83334L9.58334 11.375ZM15.3333 34.125H19.1667H15.3333Z" stroke="black" stroke-width="2" stroke-linecap="round" stroke-linejoin="round"/>
</svg>
