<svg width="72" height="63" viewBox="0 0 72 63" fill="none" xmlns="http://www.w3.org/2000/svg">
<path fill-rule="evenodd" clip-rule="evenodd" d="M48 23.625C48 26.4098 46.7357 29.0805 44.4853 31.0496C42.2348 33.0188 39.1826 34.125 36 34.125C32.8174 34.125 29.7652 33.0188 27.5147 31.0496C25.2643 29.0805 24 26.4098 24 23.625C24 20.8402 25.2643 18.1695 27.5147 16.2004C29.7652 14.2312 32.8174 13.125 36 13.125C39.1826 13.125 42.2348 14.2312 44.4853 16.2004C46.7357 18.1695 48 20.8402 48 23.625V23.625ZM42 23.625C42 25.0174 41.3679 26.3527 40.2426 27.3373C39.1174 28.3219 37.5913 28.875 36 28.875C34.4087 28.875 32.8826 28.3219 31.7574 27.3373C30.6321 26.3527 30 25.0174 30 23.625C30 22.2326 30.6321 20.8973 31.7574 19.9127C32.8826 18.9281 34.4087 18.375 36 18.375C37.5913 18.375 39.1174 18.9281 40.2426 19.9127C41.3679 20.8973 42 22.2326 42 23.625V23.625Z" fill="#5603AD"/>
<path fill-rule="evenodd" clip-rule="evenodd" d="M36 2.625C17.775 2.625 3 15.5531 3 31.5C3 47.4469 17.775 60.375 36 60.375C54.225 60.375 69 47.4469 69 31.5C69 15.5531 54.225 2.625 36 2.625ZM9 31.5C9 36.9862 11.139 42.0367 14.724 46.0477C17.2417 43.1547 20.4897 40.8102 24.2143 39.1973C27.9389 37.5844 32.0392 36.7468 36.195 36.75C40.297 36.7466 44.3457 37.5625 48.0328 39.1356C51.7198 40.7086 54.9479 42.9973 57.471 45.8273C60.0703 42.8442 61.8205 39.3624 62.5767 35.67C63.3329 31.9777 63.0733 28.1808 61.8195 24.5936C60.5657 21.0064 58.3537 17.732 55.3665 15.0413C52.3793 12.3507 48.7028 10.3211 44.6411 9.12059C40.5795 7.92004 36.2496 7.58303 32.0096 8.13743C27.7696 8.69183 23.7414 10.1217 20.2583 12.3088C16.7752 14.4958 13.9374 17.3772 11.9797 20.7144C10.0219 24.0516 9.00054 27.7488 9 31.5V31.5ZM36 55.125C29.8018 55.1331 23.7908 53.2674 18.984 49.8435C20.9188 47.4199 23.494 45.4412 26.4906 44.0755C29.4871 42.7099 32.8164 41.9979 36.195 42C39.5315 41.9977 42.8205 42.6919 45.7888 44.025C48.7571 45.3581 51.3191 47.2916 53.262 49.665C48.4179 53.2001 42.3078 55.1327 36 55.125V55.125Z" fill="#5603AD"/>
</svg>
