<svg width="48" height="48" viewBox="0 0 48 48" fill="none" xmlns="http://www.w3.org/2000/svg">
<path fill-rule="evenodd" clip-rule="evenodd" d="M35.28 10.464C35.6872 10.8036 35.9429 11.291 35.9909 11.819C36.0389 12.3471 35.8753 12.8726 35.536 13.28L26.603 24L35.536 34.72C35.7116 34.9207 35.8452 35.1545 35.9291 35.4077C36.013 35.6608 36.0455 35.9282 36.0245 36.194C36.0036 36.4599 35.9296 36.7189 35.8071 36.9558C35.6846 37.1926 35.5159 37.4026 35.3111 37.5733C35.1062 37.7441 34.8692 37.8721 34.6142 37.9499C34.3591 38.0277 34.091 38.0537 33.8257 38.0264C33.5605 37.999 33.3033 37.9189 33.0695 37.7907C32.8356 37.6626 32.6297 37.4889 32.464 37.28L24 27.124L15.537 37.28C15.3702 37.4859 15.1642 37.6567 14.9309 37.7823C14.6976 37.9079 14.4416 37.9859 14.1779 38.0118C13.9142 38.0376 13.648 38.0108 13.3947 37.9329C13.1415 37.855 12.9062 37.7275 12.7026 37.5579C12.499 37.3883 12.3312 37.18 12.2088 36.945C12.0864 36.7099 12.012 36.4529 11.9898 36.1889C11.9676 35.9248 11.998 35.659 12.0795 35.4069C12.1609 35.1547 12.2916 34.9212 12.464 34.72L21.397 24L12.464 13.28C12.2884 13.0793 12.1547 12.8455 12.0708 12.5923C11.9869 12.3392 11.9545 12.0718 11.9754 11.806C11.9964 11.5401 12.0703 11.2811 12.1928 11.0443C12.3153 10.8074 12.484 10.5974 12.6889 10.4267C12.8937 10.256 13.1307 10.1279 13.3858 10.0501C13.6409 9.97233 13.9089 9.94634 14.1742 9.97366C14.4395 10.001 14.6966 10.0811 14.9305 10.2093C15.1643 10.3374 15.3702 10.5111 15.536 10.72L24 20.876L32.464 10.72C32.8035 10.3128 33.2909 10.057 33.819 10.009C34.347 9.96103 34.8725 10.1247 35.28 10.464V10.464Z" fill="black"/>
</svg>
